<svg xmlns="http://www.w3.org/2000/svg" version="1.1" xmlns:xlink="http://www.w3.org/1999/xlink" xmlns:svgjs="http://svgjs.com/svgjs" width="48" height="49"><svg width="48" height="49" viewBox="0 0 48 49" fill="none" xmlns="http://www.w3.org/2000/svg">
<path d="M24.611 33.2057V33.3249V38.7464L32.2593 40.8717V33.2057H24.611ZM19.6185 5.72793L16.8788 6.79868L23.6609 8.30147L23.6646 5.12275V4.14676L19.6185 5.72793ZM31.1655 41.5472L26.9037 40.3629L24.611 39.7259V43.8709L31.1655 41.5472ZM26.8732 7.41903L31.1655 5.89743L24.611 4.07604V8.22097L26.8732 7.41903ZM40.6189 26.434L42.4485 31.1161L43.9522 24.3301H39.7967L40.6189 26.434ZM41.5472 16.8292L40.3629 21.091L39.7259 23.3836H43.8708L41.5472 16.8292ZM7.41907 21.1214L5.89746 16.8292L4.07598 23.3836H8.22099L7.41907 21.1214ZM6.79881 31.1159L7.36601 28.5555L8.30226 24.3301H4.1468L6.79881 31.1159ZM23.6534 14.789L23.6598 9.26685L15.7354 7.51091V14.789H23.6534ZM15.7354 15.7354V15.9747L15.7652 27.3139L19.2137 24.1002L19.8699 24.1114L27.6804 31.922L31.9221 27.6804L24.1113 19.8698V19.2008L27.556 15.7562L16.2813 15.7354H15.7354ZM15.7354 28.6326V32.2594H26.6796L19.5231 25.1028L15.7354 28.6326ZM15.7354 33.2057V41.8733L23.6511 38.6785V33.2057H15.7354ZM23.6646 39.6911L21.3045 40.6437L16.8486 42.442L23.6646 43.9523V39.6911ZM14.7889 42.5733V33.2057H6.92333L6.48347 32.9045L3.01481 24.0288L3.11469 23.8823L3 23.7312L5.38822 15.1365L5.84302 14.789H14.7889V6.92332L15.0902 6.48343L23.9659 3.01487L24.1122 3.11496L24.2635 3L32.8582 5.38822L33.2057 5.84308V14.789H41.4929L41.9384 15.105L44.9852 23.6997L44.895 23.8275L45 23.9586L43.0334 32.8343L42.5732 33.2057H33.2057V41.4929L32.8897 41.9384L24.295 44.9853L24.1673 44.895L24.0361 45L15.1604 43.0335L14.7889 42.5733ZM14.7889 32.2594V24.3301H9.26781L7.5109 32.2594H14.7889ZM14.7889 23.3836V15.7354H6.51194L9.22332 23.3836H14.7889ZM32.2593 32.2594V28.6812L28.6812 32.2594H32.2593ZM32.2593 26.6796V15.7354H28.9151L25.115 19.5354L32.2593 26.6796ZM32.2593 14.789V6.512L24.611 9.22331V14.6777V14.789H32.2593ZM33.2057 15.7354V23.3836H38.7463L40.8717 15.7354H33.2057ZM33.2057 24.3301V32.2594H41.8812L38.7825 24.3301H33.2057Z" fill="#000"></path>
</svg><style>@media (prefers-color-scheme: light) { :root { filter: none; } }
@media (prefers-color-scheme: dark) { :root { filter: none; } }
</style></svg>