<svg width="293" height="86" viewBox="0 0 293 86" fill="none" xmlns="http://www.w3.org/2000/svg">
<path d="M239.889 49.0425V55.9521H207.59V69.91H200.691V55.9521C200.691 50.5394 200.752 36.049 200.752 30.6176H207.651V36.6858V49.0425H239.889Z" stroke="#292929" stroke-width="2.83467" stroke-miterlimit="2.61313"/>
<path d="M246.788 49.0425H239.89V30.6174H246.788V49.0425Z" stroke="#292929" stroke-width="2.83467" stroke-miterlimit="2.61313"/>
<path d="M167.458 30.6172V23.7079H185.854V30.6172H167.458Z" stroke="#292929" stroke-width="2.83467" stroke-miterlimit="2.61313"/>
<path d="M147.365 63.0008V69.9104H123.885V63.0008H147.365Z" stroke="#292929" stroke-width="2.83467" stroke-miterlimit="2.61313"/>
<path d="M152.73 63.4034H145.831V30.6172H152.73V63.4034Z" stroke="#292929" stroke-width="2.83467" stroke-miterlimit="2.61313"/>
<path d="M115.986 30.6172H122.884V63.4034H115.986V30.6172Z" stroke="#292929" stroke-width="2.83467" stroke-miterlimit="2.61313"/>
<path d="M100.488 49.0424V55.9524C75.2919 55.9524 50.0947 55.9524 24.8986 55.9524V49.0424H61.2911V22.9095H68.1896V49.0424H100.488Z" stroke="#292929" stroke-width="2.83467" stroke-miterlimit="2.61313"/>
<path d="M107.387 49.0429H100.488V30.6172H107.387V49.0429Z" stroke="#292929" stroke-width="2.83467" stroke-miterlimit="2.61313"/>
<path d="M97.6093 16V22.9096H68.1898V16H97.6093Z" stroke="#292929" stroke-width="2.83467" stroke-miterlimit="2.61313"/>
<path d="M130.887 38.049V31.1395H138.362V38.049H130.887Z" stroke="#292929" stroke-width="2.83467" stroke-miterlimit="2.61313"/>
<path d="M59.3693 48.6743L69.2692 48.6474L71.9321 48.6398" stroke="#292929" stroke-width="2.83467" stroke-miterlimit="2.61313"/>
<path d="M216.817 69.5067V62.5974H234.366V69.5067H216.817Z" stroke="#292929" stroke-width="2.83467" stroke-miterlimit="2.61313"/>
<path d="M75.7131 37.5269V30.6172H93.2628V37.5269H75.7131Z" stroke="#292929" stroke-width="2.83467" stroke-miterlimit="2.61313"/>
<path d="M167.518 49.0425V55.9521H185.914V69.91H192.813V55.9521C192.813 53.0515 192.795 47.5435 192.779 42.2194C192.766 37.6099 192.752 33.138 192.752 30.6176H185.854V36.6861V49.0425H167.518Z" stroke="#292929" stroke-width="2.83467" stroke-miterlimit="2.61313"/>
<path d="M24.8988 28.0319V48.8992H18V28.0319H24.8988Z" stroke="#292929" stroke-width="2.83467" stroke-miterlimit="2.61313"/>
<path d="M160.62 49.0425H167.518V30.6172H160.62V49.0425Z" stroke="#292929" stroke-width="2.83467" stroke-miterlimit="2.61313"/>
<path d="M261.661 30.6171V63H254.761V30.6171H261.661Z" stroke="#292929" stroke-width="2.83467" stroke-miterlimit="2.61313"/>
<path d="M240.099 22.9099V16.0003H276.322V22.9099H240.099Z" stroke="#292929" stroke-width="2.83467" stroke-miterlimit="2.61313"/>
</svg>
